<svg width="22" height="26" viewBox="0 0 22 26" fill="none" xmlns="http://www.w3.org/2000/svg">
<path fill-rule="evenodd" clip-rule="evenodd" d="M15.204 0.524477C15.2222 0.498514 15.2579 0.492204 15.2839 0.510384L17.059 1.75335C17.085 1.77153 17.0913 1.80731 17.0732 1.83327L14.6025 5.36176C15.8036 5.74549 16.6219 6.15941 16.6219 6.15941C16.6219 6.15941 14.6217 9.6 11.2291 9.6C7.83654 9.6 5.42581 6.39331 5.42581 6.39331C5.42581 6.39331 6.28061 5.84779 7.54772 5.37992L4.83772 2.1503C4.81735 2.12602 4.82053 2.08982 4.8448 2.06945L6.50483 0.676499C6.52915 0.656126 6.56533 0.659293 6.58569 0.683573L10.017 4.77284C10.3108 4.73961 10.6101 4.72103 10.9122 4.72103C11.3463 4.72103 11.7799 4.75404 12.2032 4.81004L15.204 0.524477ZM15.8752 9.76294C16.7805 9.11635 18.1505 7.42872 18.1505 7.42872C18.1505 7.42872 21.6497 10.2017 21.6497 16.0815C21.6497 21.9612 15.6 25.5 15.6 25.5C15.6 25.5 12.7096 22.581 12 18.8807C11.2905 15.1804 13.0497 11.0716 13.0497 11.0716C13.0497 11.0716 14.9698 10.4095 15.8752 9.76294ZM6.1249 9.76294C5.21956 9.11635 3.84962 7.42872 3.84962 7.42872C3.84962 7.42872 0.350342 10.2017 0.350342 16.0815C0.350342 21.9612 6.40005 25.5 6.40005 25.5C6.40005 25.5 9.29047 22.581 10.0001 18.8807C10.7096 15.1804 8.95043 11.0716 8.95043 11.0716C8.95043 11.0716 7.03028 10.4095 6.1249 9.76294Z" fill="white"/>
</svg>
