<svg width="25" height="25" viewBox="0 0 25 25" fill="none" xmlns="http://www.w3.org/2000/svg">
<path fill-rule="evenodd" clip-rule="evenodd" d="M5.01608 19.8238L9.02608 18.6611L12.4896 24.9938C12.4941 25.0021 12.5059 25.0021 12.5104 24.9938L15.9739 18.6611L19.9839 19.8238C19.9929 19.8264 20.0013 19.818 19.9986 19.8091L18.8356 15.8784L24.9938 12.5104C25.0021 12.5059 25.0021 12.4941 24.9938 12.4896L18.7849 9.09381L19.9986 4.99162C20.0013 4.98264 19.9929 4.97429 19.9839 4.97687L15.8798 6.1669L12.5104 0.00616173C12.5059 -0.00205376 12.4941 -0.00205399 12.4896 0.00616153L9.12018 6.1669L5.01608 4.97687C5.0071 4.97429 4.99875 4.98264 5.00144 4.99162L6.2151 9.09381L0.00616173 12.4896C-0.00205376 12.4941 -0.00205399 12.5059 0.00616154 12.5104L6.16432 15.8784L5.00144 19.8091C4.99875 19.818 5.0071 19.8264 5.01608 19.8238ZM8.12781 12.5432L10.9687 14.0969L12.5224 16.9377C12.5269 16.946 12.5387 16.946 12.5432 16.9377L14.0969 14.0969L16.9377 12.5432C16.9459 12.5387 16.9459 12.5269 16.9377 12.5224L14.0969 10.9687L12.5432 8.12786C12.5387 8.11961 12.5269 8.11961 12.5224 8.12786L10.9687 10.9687L8.12781 12.5224C8.11961 12.5269 8.11961 12.5387 8.12781 12.5432Z" fill="#17171B"/>
</svg>
