<svg width="161" height="75" viewBox="0 0 161 75" fill="none" xmlns="http://www.w3.org/2000/svg">
<path d="M158.125 5.76924C156.537 5.76924 155.25 4.47775 155.25 2.88462C155.25 1.29149 156.537 6.73925e-06 158.125 6.80889e-06C159.713 6.87853e-06 161 1.29149 161 2.88462C161 4.47775 159.713 5.76924 158.125 5.76924Z" fill="#17171B"/>
<path d="M158.125 23.0769C156.537 23.0769 155.25 21.7854 155.25 20.1923C155.25 18.5992 156.537 17.3077 158.125 17.3077C159.713 17.3077 161 18.5992 161 20.1923C161 21.7854 159.713 23.0769 158.125 23.0769Z" fill="#17171B"/>
<path d="M158.125 40.3846C156.537 40.3846 155.25 39.0931 155.25 37.5C155.25 35.9069 156.537 34.6154 158.125 34.6154C159.713 34.6154 161 35.9069 161 37.5C161 39.0931 159.713 40.3846 158.125 40.3846Z" fill="#17171B"/>
<path d="M158.125 57.6923C156.537 57.6923 155.25 56.4008 155.25 54.8077C155.25 53.2146 156.537 51.9231 158.125 51.9231C159.713 51.9231 161 53.2146 161 54.8077C161 56.4008 159.713 57.6923 158.125 57.6923Z" fill="#17171B"/>
<path d="M158.125 75C156.537 75 155.25 73.7085 155.25 72.1154C155.25 70.5223 156.537 69.2308 158.125 69.2308C159.713 69.2308 161 70.5223 161 72.1154C161 73.7085 159.713 75 158.125 75Z" fill="#17171B"/>
<path d="M140.875 5.76924C139.287 5.76924 138 4.47775 138 2.88462C138 1.29149 139.287 5.98271e-06 140.875 6.05235e-06C142.463 6.12198e-06 143.75 1.29149 143.75 2.88462C143.75 4.47775 142.463 5.76924 140.875 5.76924Z" fill="#17171B"/>
<path d="M140.875 23.0769C139.287 23.0769 138 21.7854 138 20.1923C138 18.5992 139.287 17.3077 140.875 17.3077C142.463 17.3077 143.75 18.5992 143.75 20.1923C143.75 21.7854 142.463 23.0769 140.875 23.0769Z" fill="#17171B"/>
<path d="M140.875 40.3846C139.287 40.3846 138 39.0931 138 37.5C138 35.9069 139.287 34.6154 140.875 34.6154C142.463 34.6154 143.75 35.9069 143.75 37.5C143.75 39.0931 142.463 40.3846 140.875 40.3846Z" fill="#17171B"/>
<path d="M140.875 57.6923C139.287 57.6923 138 56.4008 138 54.8077C138 53.2146 139.287 51.9231 140.875 51.9231C142.463 51.9231 143.75 53.2146 143.75 54.8077C143.75 56.4008 142.463 57.6923 140.875 57.6923Z" fill="#17171B"/>
<path d="M140.875 75C139.287 75 138 73.7085 138 72.1154C138 70.5223 139.287 69.2308 140.875 69.2308C142.463 69.2308 143.75 70.5223 143.75 72.1154C143.75 73.7085 142.463 75 140.875 75Z" fill="#17171B"/>
<path d="M123.625 5.76924C122.037 5.76924 120.75 4.47775 120.75 2.88462C120.75 1.29149 122.037 5.22616e-06 123.625 5.2958e-06C125.213 5.36544e-06 126.5 1.29149 126.5 2.88462C126.5 4.47775 125.213 5.76924 123.625 5.76924Z" fill="#17171B"/>
<path d="M123.625 23.0769C122.037 23.0769 120.75 21.7854 120.75 20.1923C120.75 18.5992 122.037 17.3077 123.625 17.3077C125.213 17.3077 126.5 18.5992 126.5 20.1923C126.5 21.7854 125.213 23.0769 123.625 23.0769Z" fill="#17171B"/>
<path d="M123.625 40.3846C122.037 40.3846 120.75 39.0931 120.75 37.5C120.75 35.9069 122.037 34.6154 123.625 34.6154C125.213 34.6154 126.5 35.9069 126.5 37.5C126.5 39.0931 125.213 40.3846 123.625 40.3846Z" fill="#17171B"/>
<path d="M123.625 57.6923C122.037 57.6923 120.75 56.4008 120.75 54.8077C120.75 53.2146 122.037 51.9231 123.625 51.9231C125.213 51.9231 126.5 53.2146 126.5 54.8077C126.5 56.4008 125.213 57.6923 123.625 57.6923Z" fill="#17171B"/>
<path d="M123.625 75C122.037 75 120.75 73.7085 120.75 72.1154C120.75 70.5223 122.037 69.2308 123.625 69.2308C125.213 69.2308 126.5 70.5223 126.5 72.1154C126.5 73.7085 125.213 75 123.625 75Z" fill="#17171B"/>
<path d="M106.375 5.76923C104.787 5.76923 103.5 4.47775 103.5 2.88462C103.5 1.29149 104.787 4.46962e-06 106.375 4.53926e-06C107.963 4.6089e-06 109.25 1.29149 109.25 2.88462C109.25 4.47775 107.963 5.76923 106.375 5.76923Z" fill="#17171B"/>
<path d="M106.375 23.0769C104.787 23.0769 103.5 21.7854 103.5 20.1923C103.5 18.5992 104.787 17.3077 106.375 17.3077C107.963 17.3077 109.25 18.5992 109.25 20.1923C109.25 21.7854 107.963 23.0769 106.375 23.0769Z" fill="#17171B"/>
<path d="M106.375 40.3846C104.787 40.3846 103.5 39.0931 103.5 37.5C103.5 35.9069 104.787 34.6154 106.375 34.6154C107.963 34.6154 109.25 35.9069 109.25 37.5C109.25 39.0931 107.963 40.3846 106.375 40.3846Z" fill="#17171B"/>
<path d="M106.375 57.6923C104.787 57.6923 103.5 56.4008 103.5 54.8077C103.5 53.2146 104.787 51.9231 106.375 51.9231C107.963 51.9231 109.25 53.2146 109.25 54.8077C109.25 56.4008 107.963 57.6923 106.375 57.6923Z" fill="#17171B"/>
<path d="M106.375 75C104.787 75 103.5 73.7085 103.5 72.1154C103.5 70.5223 104.787 69.2308 106.375 69.2308C107.963 69.2308 109.25 70.5223 109.25 72.1154C109.25 73.7085 107.963 75 106.375 75Z" fill="#17171B"/>
<path d="M89.125 5.76923C87.5372 5.76923 86.25 4.47775 86.25 2.88462C86.25 1.29149 87.5372 3.71308e-06 89.125 3.78272e-06C90.7128 3.85235e-06 92 1.29149 92 2.88462C92 4.47775 90.7128 5.76923 89.125 5.76923Z" fill="#17171B"/>
<path d="M89.125 23.0769C87.5372 23.0769 86.25 21.7854 86.25 20.1923C86.25 18.5992 87.5372 17.3077 89.125 17.3077C90.7128 17.3077 92 18.5992 92 20.1923C92 21.7854 90.7128 23.0769 89.125 23.0769Z" fill="#17171B"/>
<path d="M89.125 40.3846C87.5372 40.3846 86.25 39.0931 86.25 37.5C86.25 35.9069 87.5372 34.6154 89.125 34.6154C90.7128 34.6154 92 35.9069 92 37.5C92 39.0931 90.7128 40.3846 89.125 40.3846Z" fill="#17171B"/>
<path d="M89.125 57.6923C87.5372 57.6923 86.25 56.4008 86.25 54.8077C86.25 53.2146 87.5372 51.9231 89.125 51.9231C90.7128 51.9231 92 53.2146 92 54.8077C92 56.4008 90.7128 57.6923 89.125 57.6923Z" fill="#17171B"/>
<path d="M89.125 75C87.5372 75 86.25 73.7085 86.25 72.1154C86.25 70.5223 87.5372 69.2308 89.125 69.2308C90.7128 69.2308 92 70.5223 92 72.1154C92 73.7085 90.7128 75 89.125 75Z" fill="#17171B"/>
<path d="M71.875 5.76923C70.2872 5.76923 69 4.47775 69 2.88462C69 1.29149 70.2872 2.95653e-06 71.875 3.02617e-06C73.4628 3.09581e-06 74.75 1.29149 74.75 2.88462C74.75 4.47775 73.4628 5.76923 71.875 5.76923Z" fill="#17171B"/>
<path d="M71.875 23.0769C70.2872 23.0769 69 21.7854 69 20.1923C69 18.5992 70.2872 17.3077 71.875 17.3077C73.4628 17.3077 74.75 18.5992 74.75 20.1923C74.75 21.7854 73.4628 23.0769 71.875 23.0769Z" fill="#17171B"/>
<path d="M71.875 40.3846C70.2872 40.3846 69 39.0931 69 37.5C69 35.9069 70.2872 34.6154 71.875 34.6154C73.4628 34.6154 74.75 35.9069 74.75 37.5C74.75 39.0931 73.4628 40.3846 71.875 40.3846Z" fill="#17171B"/>
<path d="M71.875 57.6923C70.2872 57.6923 69 56.4008 69 54.8077C69 53.2146 70.2872 51.9231 71.875 51.9231C73.4628 51.9231 74.75 53.2146 74.75 54.8077C74.75 56.4008 73.4628 57.6923 71.875 57.6923Z" fill="#17171B"/>
<path d="M71.875 75C70.2872 75 69 73.7085 69 72.1154C69 70.5223 70.2872 69.2308 71.875 69.2308C73.4628 69.2308 74.75 70.5223 74.75 72.1154C74.75 73.7085 73.4628 75 71.875 75Z" fill="#17171B"/>
<path d="M54.625 5.76923C53.0372 5.76923 51.75 4.47775 51.75 2.88462C51.75 1.29149 53.0372 2.19999e-06 54.625 2.26963e-06C56.2128 2.33927e-06 57.5 1.29149 57.5 2.88462C57.5 4.47775 56.2128 5.76923 54.625 5.76923Z" fill="#17171B"/>
<path d="M54.625 23.0769C53.0372 23.0769 51.75 21.7854 51.75 20.1923C51.75 18.5992 53.0372 17.3077 54.625 17.3077C56.2128 17.3077 57.5 18.5992 57.5 20.1923C57.5 21.7854 56.2128 23.0769 54.625 23.0769Z" fill="#17171B"/>
<path d="M54.625 40.3846C53.0372 40.3846 51.75 39.0931 51.75 37.5C51.75 35.9069 53.0372 34.6154 54.625 34.6154C56.2128 34.6154 57.5 35.9069 57.5 37.5C57.5 39.0931 56.2128 40.3846 54.625 40.3846Z" fill="#17171B"/>
<path d="M54.625 57.6923C53.0372 57.6923 51.75 56.4008 51.75 54.8077C51.75 53.2146 53.0372 51.9231 54.625 51.9231C56.2128 51.9231 57.5 53.2146 57.5 54.8077C57.5 56.4008 56.2128 57.6923 54.625 57.6923Z" fill="#17171B"/>
<path d="M54.625 75C53.0372 75 51.75 73.7085 51.75 72.1154C51.75 70.5222 53.0372 69.2308 54.625 69.2308C56.2128 69.2308 57.5 70.5223 57.5 72.1154C57.5 73.7085 56.2128 75 54.625 75Z" fill="#17171B"/>
<path d="M37.375 5.76923C35.7872 5.76923 34.5 4.47775 34.5 2.88462C34.5 1.29149 35.7872 1.44345e-06 37.375 1.51309e-06C38.9628 1.58272e-06 40.25 1.29149 40.25 2.88462C40.25 4.47775 38.9628 5.76923 37.375 5.76923Z" fill="#17171B"/>
<path d="M37.375 23.0769C35.7872 23.0769 34.5 21.7854 34.5 20.1923C34.5 18.5992 35.7872 17.3077 37.375 17.3077C38.9628 17.3077 40.25 18.5992 40.25 20.1923C40.25 21.7854 38.9628 23.0769 37.375 23.0769Z" fill="#17171B"/>
<path d="M37.375 40.3846C35.7872 40.3846 34.5 39.0931 34.5 37.5C34.5 35.9069 35.7872 34.6154 37.375 34.6154C38.9628 34.6154 40.25 35.9069 40.25 37.5C40.25 39.0931 38.9628 40.3846 37.375 40.3846Z" fill="#17171B"/>
<path d="M37.375 57.6923C35.7872 57.6923 34.5 56.4008 34.5 54.8077C34.5 53.2146 35.7872 51.9231 37.375 51.9231C38.9628 51.9231 40.25 53.2146 40.25 54.8077C40.25 56.4008 38.9628 57.6923 37.375 57.6923Z" fill="#17171B"/>
<path d="M37.375 75C35.7872 75 34.5 73.7085 34.5 72.1154C34.5 70.5222 35.7872 69.2308 37.375 69.2308C38.9628 69.2308 40.25 70.5222 40.25 72.1154C40.25 73.7085 38.9628 75 37.375 75Z" fill="#17171B"/>
<path d="M20.125 5.76923C18.5372 5.76923 17.25 4.47774 17.25 2.88462C17.25 1.29149 18.5372 6.86905e-07 20.125 7.56543e-07C21.7128 8.26181e-07 23 1.29149 23 2.88462C23 4.47774 21.7128 5.76923 20.125 5.76923Z" fill="#17171B"/>
<path d="M20.125 23.0769C18.5372 23.0769 17.25 21.7854 17.25 20.1923C17.25 18.5992 18.5372 17.3077 20.125 17.3077C21.7128 17.3077 23 18.5992 23 20.1923C23 21.7854 21.7128 23.0769 20.125 23.0769Z" fill="#17171B"/>
<path d="M20.125 40.3846C18.5372 40.3846 17.25 39.0931 17.25 37.5C17.25 35.9069 18.5372 34.6154 20.125 34.6154C21.7128 34.6154 23 35.9069 23 37.5C23 39.0931 21.7128 40.3846 20.125 40.3846Z" fill="#17171B"/>
<path d="M20.125 57.6923C18.5372 57.6923 17.25 56.4008 17.25 54.8077C17.25 53.2146 18.5372 51.9231 20.125 51.9231C21.7128 51.9231 23 53.2146 23 54.8077C23 56.4008 21.7128 57.6923 20.125 57.6923Z" fill="#17171B"/>
<path d="M20.125 75C18.5372 75 17.25 73.7085 17.25 72.1154C17.25 70.5222 18.5372 69.2308 20.125 69.2308C21.7128 69.2308 23 70.5222 23 72.1154C23 73.7085 21.7128 75 20.125 75Z" fill="#17171B"/>
<path d="M2.875 5.76923C1.28718 5.76923 2.94668e-06 4.47774 3.01609e-06 2.88462C3.08549e-06 1.29149 1.28718 -6.96379e-08 2.875 0C4.46282 6.96379e-08 5.75 1.29149 5.75 2.88462C5.75 4.47774 4.46282 5.76923 2.875 5.76923Z" fill="#17171B"/>
<path d="M2.875 23.0769C1.28718 23.0769 2.19266e-06 21.7854 2.26206e-06 20.1923C2.33147e-06 18.5992 1.28718 17.3077 2.875 17.3077C4.46282 17.3077 5.75 18.5992 5.75 20.1923C5.75 21.7854 4.46282 23.0769 2.875 23.0769Z" fill="#17171B"/>
<path d="M2.875 40.3846C1.28718 40.3846 1.43864e-06 39.0931 1.50804e-06 37.5C1.57745e-06 35.9069 1.28718 34.6154 2.875 34.6154C4.46282 34.6154 5.75 35.9069 5.75 37.5C5.75 39.0931 4.46282 40.3846 2.875 40.3846Z" fill="#17171B"/>
<path d="M2.875 57.6923C1.28718 57.6923 6.84616e-07 56.4008 7.54022e-07 54.8077C8.23427e-07 53.2146 1.28718 51.9231 2.875 51.9231C4.46282 51.9231 5.75 53.2146 5.75 54.8077C5.75 56.4008 4.46282 57.6923 2.875 57.6923Z" fill="#17171B"/>
<path d="M2.875 75C1.28718 75 -6.94057e-08 73.7085 0 72.1154C6.94058e-08 70.5222 1.28718 69.2308 2.875 69.2308C4.46282 69.2308 5.75 70.5222 5.75 72.1154C5.75 73.7085 4.46282 75 2.875 75Z" fill="#17171B"/>
</svg>
