<svg width="171" height="75" viewBox="0 0 171 75" fill="none" xmlns="http://www.w3.org/2000/svg">
<path d="M9.24324 4.6875C9.24324 7.27633 7.17407 9.375 4.62162 9.375C2.06917 9.375 0 7.27633 0 4.6875C0 2.09867 2.06917 0 4.62162 0C7.17407 0 9.24324 2.09867 9.24324 4.6875Z" fill="#17171B"/>
<path d="M41.5946 4.6875C41.5946 7.27633 39.5254 9.375 36.973 9.375C34.4205 9.375 32.3514 7.27633 32.3514 4.6875C32.3514 2.09867 34.4205 0 36.973 0C39.5254 0 41.5946 2.09867 41.5946 4.6875Z" fill="#17171B"/>
<path d="M73.9459 4.6875C73.9459 7.27633 71.8768 9.375 69.3243 9.375C66.7719 9.375 64.7027 7.27633 64.7027 4.6875C64.7027 2.09867 66.7719 0 69.3243 0C71.8768 0 73.9459 2.09867 73.9459 4.6875Z" fill="#17171B"/>
<path d="M106.297 4.6875C106.297 7.27633 104.228 9.375 101.676 9.375C99.1232 9.375 97.0541 7.27633 97.0541 4.6875C97.0541 2.09867 99.1232 0 101.676 0C104.228 0 106.297 2.09867 106.297 4.6875Z" fill="#17171B"/>
<path d="M138.649 4.6875C138.649 7.27633 136.579 9.375 134.027 9.375C131.475 9.375 129.405 7.27633 129.405 4.6875C129.405 2.09867 131.475 0 134.027 0C136.579 0 138.649 2.09867 138.649 4.6875Z" fill="#17171B"/>
<path d="M171 4.6875C171 7.27633 168.931 9.375 166.378 9.375C163.826 9.375 161.757 7.27633 161.757 4.6875C161.757 2.09867 163.826 0 166.378 0C168.931 0 171 2.09867 171 4.6875Z" fill="#17171B"/>
<path d="M9.24324 37.5C9.24324 40.0888 7.17407 42.1875 4.62162 42.1875C2.06917 42.1875 0 40.0888 0 37.5C0 34.9112 2.06917 32.8125 4.62162 32.8125C7.17407 32.8125 9.24324 34.9112 9.24324 37.5Z" fill="#17171B"/>
<path d="M41.5946 37.5C41.5946 40.0888 39.5254 42.1875 36.973 42.1875C34.4205 42.1875 32.3514 40.0888 32.3514 37.5C32.3514 34.9112 34.4205 32.8125 36.973 32.8125C39.5254 32.8125 41.5946 34.9112 41.5946 37.5Z" fill="#17171B"/>
<path d="M73.9459 37.5C73.9459 40.0888 71.8768 42.1875 69.3243 42.1875C66.7719 42.1875 64.7027 40.0888 64.7027 37.5C64.7027 34.9112 66.7719 32.8125 69.3243 32.8125C71.8768 32.8125 73.9459 34.9112 73.9459 37.5Z" fill="#17171B"/>
<path d="M106.297 37.5C106.297 40.0888 104.228 42.1875 101.676 42.1875C99.1232 42.1875 97.0541 40.0888 97.0541 37.5C97.0541 34.9112 99.1232 32.8125 101.676 32.8125C104.228 32.8125 106.297 34.9112 106.297 37.5Z" fill="#17171B"/>
<path d="M138.649 37.5C138.649 40.0888 136.579 42.1875 134.027 42.1875C131.475 42.1875 129.405 40.0888 129.405 37.5C129.405 34.9112 131.475 32.8125 134.027 32.8125C136.579 32.8125 138.649 34.9112 138.649 37.5Z" fill="#17171B"/>
<path d="M171 37.5C171 40.0888 168.931 42.1875 166.378 42.1875C163.826 42.1875 161.757 40.0888 161.757 37.5C161.757 34.9112 163.826 32.8125 166.378 32.8125C168.931 32.8125 171 34.9112 171 37.5Z" fill="#17171B"/>
<path d="M9.24324 70.3125C9.24324 72.9013 7.17407 75 4.62162 75C2.06917 75 0 72.9013 0 70.3125C0 67.7237 2.06917 65.625 4.62162 65.625C7.17407 65.625 9.24324 67.7237 9.24324 70.3125Z" fill="#17171B"/>
<path d="M41.5946 70.3125C41.5946 72.9013 39.5254 75 36.973 75C34.4205 75 32.3514 72.9013 32.3514 70.3125C32.3514 67.7237 34.4205 65.625 36.973 65.625C39.5254 65.625 41.5946 67.7237 41.5946 70.3125Z" fill="#17171B"/>
<path d="M73.9459 70.3125C73.9459 72.9013 71.8768 75 69.3243 75C66.7719 75 64.7027 72.9013 64.7027 70.3125C64.7027 67.7237 66.7719 65.625 69.3243 65.625C71.8768 65.625 73.9459 67.7237 73.9459 70.3125Z" fill="#17171B"/>
<path d="M106.297 70.3125C106.297 72.9013 104.228 75 101.676 75C99.1232 75 97.0541 72.9013 97.0541 70.3125C97.0541 67.7237 99.1232 65.625 101.676 65.625C104.228 65.625 106.297 67.7237 106.297 70.3125Z" fill="#17171B"/>
<path d="M138.649 70.3125C138.649 72.9013 136.579 75 134.027 75C131.475 75 129.405 72.9013 129.405 70.3125C129.405 67.7237 131.475 65.625 134.027 65.625C136.579 65.625 138.649 67.7237 138.649 70.3125Z" fill="#17171B"/>
<path d="M171 70.3125C171 72.9013 168.931 75 166.378 75C163.826 75 161.757 72.9013 161.757 70.3125C161.757 67.7237 163.826 65.625 166.378 65.625C168.931 65.625 171 67.7237 171 70.3125Z" fill="#17171B"/>
</svg>
